<?xml version="1.0" encoding="utf-8" standalone="no"?>
<!DOCTYPE svg PUBLIC "-//W3C//DTD SVG 1.1//EN"
  "http://www.w3.org/Graphics/SVG/1.1/DTD/svg11.dtd">
<svg xmlns:xlink="http://www.w3.org/1999/xlink" width="921.6pt" height="460.8pt" viewBox="0 0 921.6 460.8" xmlns="http://www.w3.org/2000/svg" version="1.1">
 <metadata>
  <rdf:RDF xmlns:dc="http://purl.org/dc/elements/1.1/" xmlns:cc="http://creativecommons.org/ns#" xmlns:rdf="http://www.w3.org/1999/02/22-rdf-syntax-ns#">
   <cc:Work>
    <dc:type rdf:resource="http://purl.org/dc/dcmitype/StillImage"/>
    <dc:date>2026-10-06T20:50:48.220542</dc:date>
    <dc:format>image/svg+xml</dc:format>
    <dc:creator>
     <cc:Agent>
      <dc:title>Matplotlib v3.10.8, https://matplotlib.org/</dc:title>
     </cc:Agent>
    </dc:creator>
   </cc:Work>
  </rdf:RDF>
 </metadata>
 <defs>
  <style type="text/css">*{stroke-linejoin: round; stroke-linecap: butt}</style>
 </defs>
 <g id="figure_1">
  <g id="patch_1">
   <path d="M 0 460.8 
L 921.6 460.8 
L 921.6 0 
L 0 0 
z
" style="fill: #ffffff"/>
  </g>
  <g id="axes_1">
   <g id="patch_2">
    <path d="M 92.16 382.464 
L 866.304 382.464 
L 866.304 82.944 
L 92.16 82.944 
z
" style="fill: #ffffff"/>
   </g>
   <g id="patch_3">
    <path d="M 127.348364 382.464 
L 264.668807 382.464 
L 264.668807 324.0576 
L 127.348364 324.0576 
z
" clip-path="url(#p42aa1d93db)" style="fill: #1f77b4"/>
   </g>
   <g id="patch_4">
    <path d="M 556.474749 382.464 
L 693.795193 382.464 
L 693.795193 370.4832 
L 556.474749 370.4832 
z
" clip-path="url(#p42aa1d93db)" style="fill: #1f77b4"/>
   </g>
   <g id="patch_5">
    <path d="M 264.668807 382.464 
L 401.989251 382.464 
L 401.989251 130.8672 
L 264.668807 130.8672 
z
" clip-path="url(#p42aa1d93db)" style="fill: #ff7f0e"/>
   </g>
   <g id="patch_6">
    <path d="M 693.795193 382.464 
L 831.115636 382.464 
L 831.115636 271.6416 
L 693.795193 271.6416 
z
" clip-path="url(#p42aa1d93db)" style="fill: #ff7f0e"/>
   </g>
   <g id="matplotlib.axis_1">
    <g id="xtick_1">
     <g id="line2d_1">
      <defs>
       <path id="m0d827dbe38" d="M 0 0 
L 0 3.5 
" style="stroke: #000000; stroke-width: 0.8"/>
      </defs>
      <g>
       <use xlink:href="#m0d827dbe38" x="264.668807" y="382.464" style="stroke: #000000; stroke-width: 0.8"/>
      </g>
     </g>
     <g id="text_1">
      <!-- JSON record -->
      <g transform="translate(233.289393 397.442359) scale(0.105 -0.105)">
       <defs>
        <path id="DejaVuSans-4a" d="M 628 4666 
L 1259 4666 
L 1259 325 
Q 1259 -519 939 -900 
Q 619 -1281 -91 -1281 
L -331 -1281 
L -331 -750 
L -134 -750 
Q 284 -750 456 -515 
Q 628 -281 628 325 
L 628 4666 
z
" transform="scale(0.015625)"/>
        <path id="DejaVuSans-53" d="M 3425 4513 
L 3425 3897 
Q 3066 4069 2747 4153 
Q 2428 4238 2131 4238 
Q 1616 4238 1336 4038 
Q 1056 3838 1056 3469 
Q 1056 3159 1242 3001 
Q 1428 2844 1947 2747 
L 2328 2669 
Q 3034 2534 3370 2195 
Q 3706 1856 3706 1288 
Q 3706 609 3251 259 
Q 2797 -91 1919 -91 
Q 1588 -91 1214 -16 
Q 841 59 441 206 
L 441 856 
Q 825 641 1194 531 
Q 1563 422 1919 422 
Q 2459 422 2753 634 
Q 3047 847 3047 1241 
Q 3047 1584 2836 1778 
Q 2625 1972 2144 2069 
L 1759 2144 
Q 1053 2284 737 2584 
Q 422 2884 422 3419 
Q 422 4038 858 4394 
Q 1294 4750 2059 4750 
Q 2388 4750 2728 4690 
Q 3069 4631 3425 4513 
z
" transform="scale(0.015625)"/>
        <path id="DejaVuSans-4f" d="M 2522 4238 
Q 1834 4238 1429 3725 
Q 1025 3213 1025 2328 
Q 1025 1447 1429 934 
Q 1834 422 2522 422 
Q 3209 422 3611 934 
Q 4013 1447 4013 2328 
Q 4013 3213 3611 3725 
Q 3209 4238 2522 4238 
z
M 2522 4750 
Q 3503 4750 4090 4092 
Q 4678 3434 4678 2328 
Q 4678 1225 4090 567 
Q 3503 -91 2522 -91 
Q 1538 -91 948 565 
Q 359 1222 359 2328 
Q 359 3434 948 4092 
Q 1538 4750 2522 4750 
z
" transform="scale(0.015625)"/>
        <path id="DejaVuSans-4e" d="M 628 4666 
L 1478 4666 
L 3547 763 
L 3547 4666 
L 4159 4666 
L 4159 0 
L 3309 0 
L 1241 3903 
L 1241 0 
L 628 0 
L 628 4666 
z
" transform="scale(0.015625)"/>
        <path id="DejaVuSans-20" transform="scale(0.015625)"/>
        <path id="DejaVuSans-72" d="M 2631 2963 
Q 2534 3019 2420 3045 
Q 2306 3072 2169 3072 
Q 1681 3072 1420 2755 
Q 1159 2438 1159 1844 
L 1159 0 
L 581 0 
L 581 3500 
L 1159 3500 
L 1159 2956 
Q 1341 3275 1631 3429 
Q 1922 3584 2338 3584 
Q 2397 3584 2469 3576 
Q 2541 3569 2628 3553 
L 2631 2963 
z
" transform="scale(0.015625)"/>
        <path id="DejaVuSans-65" d="M 3597 1894 
L 3597 1613 
L 953 1613 
Q 991 1019 1311 708 
Q 1631 397 2203 397 
Q 2534 397 2845 478 
Q 3156 559 3463 722 
L 3463 178 
Q 3153 47 2828 -22 
Q 2503 -91 2169 -91 
Q 1331 -91 842 396 
Q 353 884 353 1716 
Q 353 2575 817 3079 
Q 1281 3584 2069 3584 
Q 2775 3584 3186 3129 
Q 3597 2675 3597 1894 
z
M 3022 2063 
Q 3016 2534 2758 2815 
Q 2500 3097 2075 3097 
Q 1594 3097 1305 2825 
Q 1016 2553 972 2059 
L 3022 2063 
z
" transform="scale(0.015625)"/>
        <path id="DejaVuSans-63" d="M 3122 3366 
L 3122 2828 
Q 2878 2963 2633 3030 
Q 2388 3097 2138 3097 
Q 1578 3097 1268 2742 
Q 959 2388 959 1747 
Q 959 1106 1268 751 
Q 1578 397 2138 397 
Q 2388 397 2633 464 
Q 2878 531 3122 666 
L 3122 134 
Q 2881 22 2623 -34 
Q 2366 -91 2075 -91 
Q 1284 -91 818 406 
Q 353 903 353 1747 
Q 353 2603 823 3093 
Q 1294 3584 2113 3584 
Q 2378 3584 2631 3529 
Q 2884 3475 3122 3366 
z
" transform="scale(0.015625)"/>
        <path id="DejaVuSans-6f" d="M 1959 3097 
Q 1497 3097 1228 2736 
Q 959 2375 959 1747 
Q 959 1119 1226 758 
Q 1494 397 1959 397 
Q 2419 397 2687 759 
Q 2956 1122 2956 1747 
Q 2956 2369 2687 2733 
Q 2419 3097 1959 3097 
z
M 1959 3584 
Q 2709 3584 3137 3096 
Q 3566 2609 3566 1747 
Q 3566 888 3137 398 
Q 2709 -91 1959 -91 
Q 1206 -91 779 398 
Q 353 888 353 1747 
Q 353 2609 779 3096 
Q 1206 3584 1959 3584 
z
" transform="scale(0.015625)"/>
        <path id="DejaVuSans-64" d="M 2906 2969 
L 2906 4863 
L 3481 4863 
L 3481 0 
L 2906 0 
L 2906 525 
Q 2725 213 2448 61 
Q 2172 -91 1784 -91 
Q 1150 -91 751 415 
Q 353 922 353 1747 
Q 353 2572 751 3078 
Q 1150 3584 1784 3584 
Q 2172 3584 2448 3432 
Q 2725 3281 2906 2969 
z
M 947 1747 
Q 947 1113 1208 752 
Q 1469 391 1925 391 
Q 2381 391 2643 752 
Q 2906 1113 2906 1747 
Q 2906 2381 2643 2742 
Q 2381 3103 1925 3103 
Q 1469 3103 1208 2742 
Q 947 2381 947 1747 
z
" transform="scale(0.015625)"/>
       </defs>
       <use xlink:href="#DejaVuSans-4a"/>
       <use xlink:href="#DejaVuSans-53" transform="translate(29.492188 0)"/>
       <use xlink:href="#DejaVuSans-4f" transform="translate(92.96875 0)"/>
       <use xlink:href="#DejaVuSans-4e" transform="translate(171.679688 0)"/>
       <use xlink:href="#DejaVuSans-20" transform="translate(246.484375 0)"/>
       <use xlink:href="#DejaVuSans-72" transform="translate(278.271484 0)"/>
       <use xlink:href="#DejaVuSans-65" transform="translate(317.134766 0)"/>
       <use xlink:href="#DejaVuSans-63" transform="translate(378.658203 0)"/>
       <use xlink:href="#DejaVuSans-6f" transform="translate(433.638672 0)"/>
       <use xlink:href="#DejaVuSans-72" transform="translate(494.820312 0)"/>
       <use xlink:href="#DejaVuSans-64" transform="translate(534.183594 0)"/>
      </g>
     </g>
    </g>
    <g id="xtick_2">
     <g id="line2d_2">
      <g>
       <use xlink:href="#m0d827dbe38" x="693.795193" y="382.464" style="stroke: #000000; stroke-width: 0.8"/>
      </g>
     </g>
     <g id="text_2">
      <!-- Literal code -->
      <g transform="translate(662.958005 397.442359) scale(0.105 -0.105)">
       <defs>
        <path id="DejaVuSans-4c" d="M 628 4666 
L 1259 4666 
L 1259 531 
L 3531 531 
L 3531 0 
L 628 0 
L 628 4666 
z
" transform="scale(0.015625)"/>
        <path id="DejaVuSans-69" d="M 603 3500 
L 1178 3500 
L 1178 0 
L 603 0 
L 603 3500 
z
M 603 4863 
L 1178 4863 
L 1178 4134 
L 603 4134 
L 603 4863 
z
" transform="scale(0.015625)"/>
        <path id="DejaVuSans-74" d="M 1172 4494 
L 1172 3500 
L 2356 3500 
L 2356 3053 
L 1172 3053 
L 1172 1153 
Q 1172 725 1289 603 
Q 1406 481 1766 481 
L 2356 481 
L 2356 0 
L 1766 0 
Q 1100 0 847 248 
Q 594 497 594 1153 
L 594 3053 
L 172 3053 
L 172 3500 
L 594 3500 
L 594 4494 
L 1172 4494 
z
" transform="scale(0.015625)"/>
        <path id="DejaVuSans-61" d="M 2194 1759 
Q 1497 1759 1228 1600 
Q 959 1441 959 1056 
Q 959 750 1161 570 
Q 1363 391 1709 391 
Q 2188 391 2477 730 
Q 2766 1069 2766 1631 
L 2766 1759 
L 2194 1759 
z
M 3341 1997 
L 3341 0 
L 2766 0 
L 2766 531 
Q 2569 213 2275 61 
Q 1981 -91 1556 -91 
Q 1019 -91 701 211 
Q 384 513 384 1019 
Q 384 1609 779 1909 
Q 1175 2209 1959 2209 
L 2766 2209 
L 2766 2266 
Q 2766 2663 2505 2880 
Q 2244 3097 1772 3097 
Q 1472 3097 1187 3025 
Q 903 2953 641 2809 
L 641 3341 
Q 956 3463 1253 3523 
Q 1550 3584 1831 3584 
Q 2591 3584 2966 3190 
Q 3341 2797 3341 1997 
z
" transform="scale(0.015625)"/>
        <path id="DejaVuSans-6c" d="M 603 4863 
L 1178 4863 
L 1178 0 
L 603 0 
L 603 4863 
z
" transform="scale(0.015625)"/>
       </defs>
       <use xlink:href="#DejaVuSans-4c"/>
       <use xlink:href="#DejaVuSans-69" transform="translate(55.712891 0)"/>
       <use xlink:href="#DejaVuSans-74" transform="translate(83.496094 0)"/>
       <use xlink:href="#DejaVuSans-65" transform="translate(122.705078 0)"/>
       <use xlink:href="#DejaVuSans-72" transform="translate(184.228516 0)"/>
       <use xlink:href="#DejaVuSans-61" transform="translate(225.341797 0)"/>
       <use xlink:href="#DejaVuSans-6c" transform="translate(286.621094 0)"/>
       <use xlink:href="#DejaVuSans-20" transform="translate(314.404297 0)"/>
       <use xlink:href="#DejaVuSans-63" transform="translate(346.191406 0)"/>
       <use xlink:href="#DejaVuSans-6f" transform="translate(401.171875 0)"/>
       <use xlink:href="#DejaVuSans-64" transform="translate(462.353516 0)"/>
       <use xlink:href="#DejaVuSans-65" transform="translate(525.830078 0)"/>
      </g>
     </g>
    </g>
   </g>
   <g id="matplotlib.axis_2">
    <g id="ytick_1">
     <g id="line2d_3">
      <defs>
       <path id="m83c31c915b" d="M 0 0 
L -3.5 0 
" style="stroke: #000000; stroke-width: 0.8"/>
      </defs>
      <g>
       <use xlink:href="#m83c31c915b" x="92.16" y="382.464" style="stroke: #000000; stroke-width: 0.8"/>
      </g>
     </g>
     <g id="text_3">
      <!-- 0 -->
      <g transform="translate(78.479375 386.45318) scale(0.105 -0.105)">
       <defs>
        <path id="DejaVuSans-30" d="M 2034 4250 
Q 1547 4250 1301 3770 
Q 1056 3291 1056 2328 
Q 1056 1369 1301 889 
Q 1547 409 2034 409 
Q 2525 409 2770 889 
Q 3016 1369 3016 2328 
Q 3016 3291 2770 3770 
Q 2525 4250 2034 4250 
z
M 2034 4750 
Q 2819 4750 3233 4129 
Q 3647 3509 3647 2328 
Q 3647 1150 3233 529 
Q 2819 -91 2034 -91 
Q 1250 -91 836 529 
Q 422 1150 422 2328 
Q 422 3509 836 4129 
Q 1250 4750 2034 4750 
z
" transform="scale(0.015625)"/>
       </defs>
       <use xlink:href="#DejaVuSans-30"/>
      </g>
     </g>
    </g>
    <g id="ytick_2">
     <g id="line2d_4">
      <g>
       <use xlink:href="#m83c31c915b" x="92.16" y="345.024" style="stroke: #000000; stroke-width: 0.8"/>
      </g>
     </g>
     <g id="text_4">
      <!-- 25 -->
      <g transform="translate(71.79875 349.01318) scale(0.105 -0.105)">
       <defs>
        <path id="DejaVuSans-32" d="M 1228 531 
L 3431 531 
L 3431 0 
L 469 0 
L 469 531 
Q 828 903 1448 1529 
Q 2069 2156 2228 2338 
Q 2531 2678 2651 2914 
Q 2772 3150 2772 3378 
Q 2772 3750 2511 3984 
Q 2250 4219 1831 4219 
Q 1534 4219 1204 4116 
Q 875 4013 500 3803 
L 500 4441 
Q 881 4594 1212 4672 
Q 1544 4750 1819 4750 
Q 2544 4750 2975 4387 
Q 3406 4025 3406 3419 
Q 3406 3131 3298 2873 
Q 3191 2616 2906 2266 
Q 2828 2175 2409 1742 
Q 1991 1309 1228 531 
z
" transform="scale(0.015625)"/>
        <path id="DejaVuSans-35" d="M 691 4666 
L 3169 4666 
L 3169 4134 
L 1269 4134 
L 1269 2991 
Q 1406 3038 1543 3061 
Q 1681 3084 1819 3084 
Q 2600 3084 3056 2656 
Q 3513 2228 3513 1497 
Q 3513 744 3044 326 
Q 2575 -91 1722 -91 
Q 1428 -91 1123 -41 
Q 819 9 494 109 
L 494 744 
Q 775 591 1075 516 
Q 1375 441 1709 441 
Q 2250 441 2565 725 
Q 2881 1009 2881 1497 
Q 2881 1984 2565 2268 
Q 2250 2553 1709 2553 
Q 1456 2553 1204 2497 
Q 953 2441 691 2322 
L 691 4666 
z
" transform="scale(0.015625)"/>
       </defs>
       <use xlink:href="#DejaVuSans-32"/>
       <use xlink:href="#DejaVuSans-35" transform="translate(63.623047 0)"/>
      </g>
     </g>
    </g>
    <g id="ytick_3">
     <g id="line2d_5">
      <g>
       <use xlink:href="#m83c31c915b" x="92.16" y="307.584" style="stroke: #000000; stroke-width: 0.8"/>
      </g>
     </g>
     <g id="text_5">
      <!-- 50 -->
      <g transform="translate(71.79875 311.57318) scale(0.105 -0.105)">
       <use xlink:href="#DejaVuSans-35"/>
       <use xlink:href="#DejaVuSans-30" transform="translate(63.623047 0)"/>
      </g>
     </g>
    </g>
    <g id="ytick_4">
     <g id="line2d_6">
      <g>
       <use xlink:href="#m83c31c915b" x="92.16" y="270.144" style="stroke: #000000; stroke-width: 0.8"/>
      </g>
     </g>
     <g id="text_6">
      <!-- 75 -->
      <g transform="translate(71.79875 274.13318) scale(0.105 -0.105)">
       <defs>
        <path id="DejaVuSans-37" d="M 525 4666 
L 3525 4666 
L 3525 4397 
L 1831 0 
L 1172 0 
L 2766 4134 
L 525 4134 
L 525 4666 
z
" transform="scale(0.015625)"/>
       </defs>
       <use xlink:href="#DejaVuSans-37"/>
       <use xlink:href="#DejaVuSans-35" transform="translate(63.623047 0)"/>
      </g>
     </g>
    </g>
    <g id="ytick_5">
     <g id="line2d_7">
      <g>
       <use xlink:href="#m83c31c915b" x="92.16" y="232.704" style="stroke: #000000; stroke-width: 0.8"/>
      </g>
     </g>
     <g id="text_7">
      <!-- 100 -->
      <g transform="translate(65.118125 236.69318) scale(0.105 -0.105)">
       <defs>
        <path id="DejaVuSans-31" d="M 794 531 
L 1825 531 
L 1825 4091 
L 703 3866 
L 703 4441 
L 1819 4666 
L 2450 4666 
L 2450 531 
L 3481 531 
L 3481 0 
L 794 0 
L 794 531 
z
" transform="scale(0.015625)"/>
       </defs>
       <use xlink:href="#DejaVuSans-31"/>
       <use xlink:href="#DejaVuSans-30" transform="translate(63.623047 0)"/>
       <use xlink:href="#DejaVuSans-30" transform="translate(127.246094 0)"/>
      </g>
     </g>
    </g>
    <g id="ytick_6">
     <g id="line2d_8">
      <g>
       <use xlink:href="#m83c31c915b" x="92.16" y="195.264" style="stroke: #000000; stroke-width: 0.8"/>
      </g>
     </g>
     <g id="text_8">
      <!-- 125 -->
      <g transform="translate(65.118125 199.25318) scale(0.105 -0.105)">
       <use xlink:href="#DejaVuSans-31"/>
       <use xlink:href="#DejaVuSans-32" transform="translate(63.623047 0)"/>
       <use xlink:href="#DejaVuSans-35" transform="translate(127.246094 0)"/>
      </g>
     </g>
    </g>
    <g id="ytick_7">
     <g id="line2d_9">
      <g>
       <use xlink:href="#m83c31c915b" x="92.16" y="157.824" style="stroke: #000000; stroke-width: 0.8"/>
      </g>
     </g>
     <g id="text_9">
      <!-- 150 -->
      <g transform="translate(65.118125 161.81318) scale(0.105 -0.105)">
       <use xlink:href="#DejaVuSans-31"/>
       <use xlink:href="#DejaVuSans-35" transform="translate(63.623047 0)"/>
       <use xlink:href="#DejaVuSans-30" transform="translate(127.246094 0)"/>
      </g>
     </g>
    </g>
    <g id="ytick_8">
     <g id="line2d_10">
      <g>
       <use xlink:href="#m83c31c915b" x="92.16" y="120.384" style="stroke: #000000; stroke-width: 0.8"/>
      </g>
     </g>
     <g id="text_10">
      <!-- 175 -->
      <g transform="translate(65.118125 124.37318) scale(0.105 -0.105)">
       <use xlink:href="#DejaVuSans-31"/>
       <use xlink:href="#DejaVuSans-37" transform="translate(63.623047 0)"/>
       <use xlink:href="#DejaVuSans-35" transform="translate(127.246094 0)"/>
      </g>
     </g>
    </g>
    <g id="ytick_9">
     <g id="line2d_11">
      <g>
       <use xlink:href="#m83c31c915b" x="92.16" y="82.944" style="stroke: #000000; stroke-width: 0.8"/>
      </g>
     </g>
     <g id="text_11">
      <!-- 200 -->
      <g transform="translate(65.118125 86.93318) scale(0.105 -0.105)">
       <use xlink:href="#DejaVuSans-32"/>
       <use xlink:href="#DejaVuSans-30" transform="translate(63.623047 0)"/>
       <use xlink:href="#DejaVuSans-30" transform="translate(127.246094 0)"/>
      </g>
     </g>
    </g>
    <g id="text_12">
     <!-- Reported completion tokens -->
     <g transform="translate(58.830469 310.235953) rotate(-90) scale(0.11 -0.11)">
      <defs>
       <path id="DejaVuSans-52" d="M 2841 2188 
Q 3044 2119 3236 1894 
Q 3428 1669 3622 1275 
L 4263 0 
L 3584 0 
L 2988 1197 
Q 2756 1666 2539 1819 
Q 2322 1972 1947 1972 
L 1259 1972 
L 1259 0 
L 628 0 
L 628 4666 
L 2053 4666 
Q 2853 4666 3247 4331 
Q 3641 3997 3641 3322 
Q 3641 2881 3436 2590 
Q 3231 2300 2841 2188 
z
M 1259 4147 
L 1259 2491 
L 2053 2491 
Q 2509 2491 2742 2702 
Q 2975 2913 2975 3322 
Q 2975 3731 2742 3939 
Q 2509 4147 2053 4147 
L 1259 4147 
z
" transform="scale(0.015625)"/>
       <path id="DejaVuSans-70" d="M 1159 525 
L 1159 -1331 
L 581 -1331 
L 581 3500 
L 1159 3500 
L 1159 2969 
Q 1341 3281 1617 3432 
Q 1894 3584 2278 3584 
Q 2916 3584 3314 3078 
Q 3713 2572 3713 1747 
Q 3713 922 3314 415 
Q 2916 -91 2278 -91 
Q 1894 -91 1617 61 
Q 1341 213 1159 525 
z
M 3116 1747 
Q 3116 2381 2855 2742 
Q 2594 3103 2138 3103 
Q 1681 3103 1420 2742 
Q 1159 2381 1159 1747 
Q 1159 1113 1420 752 
Q 1681 391 2138 391 
Q 2594 391 2855 752 
Q 3116 1113 3116 1747 
z
" transform="scale(0.015625)"/>
       <path id="DejaVuSans-6d" d="M 3328 2828 
Q 3544 3216 3844 3400 
Q 4144 3584 4550 3584 
Q 5097 3584 5394 3201 
Q 5691 2819 5691 2113 
L 5691 0 
L 5113 0 
L 5113 2094 
Q 5113 2597 4934 2840 
Q 4756 3084 4391 3084 
Q 3944 3084 3684 2787 
Q 3425 2491 3425 1978 
L 3425 0 
L 2847 0 
L 2847 2094 
Q 2847 2600 2669 2842 
Q 2491 3084 2119 3084 
Q 1678 3084 1418 2786 
Q 1159 2488 1159 1978 
L 1159 0 
L 581 0 
L 581 3500 
L 1159 3500 
L 1159 2956 
Q 1356 3278 1631 3431 
Q 1906 3584 2284 3584 
Q 2666 3584 2933 3390 
Q 3200 3197 3328 2828 
z
" transform="scale(0.015625)"/>
       <path id="DejaVuSans-6e" d="M 3513 2113 
L 3513 0 
L 2938 0 
L 2938 2094 
Q 2938 2591 2744 2837 
Q 2550 3084 2163 3084 
Q 1697 3084 1428 2787 
Q 1159 2491 1159 1978 
L 1159 0 
L 581 0 
L 581 3500 
L 1159 3500 
L 1159 2956 
Q 1366 3272 1645 3428 
Q 1925 3584 2291 3584 
Q 2894 3584 3203 3211 
Q 3513 2838 3513 2113 
z
" transform="scale(0.015625)"/>
       <path id="DejaVuSans-6b" d="M 581 4863 
L 1159 4863 
L 1159 1991 
L 2875 3500 
L 3609 3500 
L 1753 1863 
L 3688 0 
L 2938 0 
L 1159 1709 
L 1159 0 
L 581 0 
L 581 4863 
z
" transform="scale(0.015625)"/>
       <path id="DejaVuSans-73" d="M 2834 3397 
L 2834 2853 
Q 2591 2978 2328 3040 
Q 2066 3103 1784 3103 
Q 1356 3103 1142 2972 
Q 928 2841 928 2578 
Q 928 2378 1081 2264 
Q 1234 2150 1697 2047 
L 1894 2003 
Q 2506 1872 2764 1633 
Q 3022 1394 3022 966 
Q 3022 478 2636 193 
Q 2250 -91 1575 -91 
Q 1294 -91 989 -36 
Q 684 19 347 128 
L 347 722 
Q 666 556 975 473 
Q 1284 391 1588 391 
Q 1994 391 2212 530 
Q 2431 669 2431 922 
Q 2431 1156 2273 1281 
Q 2116 1406 1581 1522 
L 1381 1569 
Q 847 1681 609 1914 
Q 372 2147 372 2553 
Q 372 3047 722 3315 
Q 1072 3584 1716 3584 
Q 2034 3584 2315 3537 
Q 2597 3491 2834 3397 
z
" transform="scale(0.015625)"/>
      </defs>
      <use xlink:href="#DejaVuSans-52"/>
      <use xlink:href="#DejaVuSans-65" transform="translate(64.982422 0)"/>
      <use xlink:href="#DejaVuSans-70" transform="translate(126.505859 0)"/>
      <use xlink:href="#DejaVuSans-6f" transform="translate(189.982422 0)"/>
      <use xlink:href="#DejaVuSans-72" transform="translate(251.164062 0)"/>
      <use xlink:href="#DejaVuSans-74" transform="translate(292.277344 0)"/>
      <use xlink:href="#DejaVuSans-65" transform="translate(331.486328 0)"/>
      <use xlink:href="#DejaVuSans-64" transform="translate(393.009766 0)"/>
      <use xlink:href="#DejaVuSans-20" transform="translate(456.486328 0)"/>
      <use xlink:href="#DejaVuSans-63" transform="translate(488.273438 0)"/>
      <use xlink:href="#DejaVuSans-6f" transform="translate(543.253906 0)"/>
      <use xlink:href="#DejaVuSans-6d" transform="translate(604.435547 0)"/>
      <use xlink:href="#DejaVuSans-70" transform="translate(701.847656 0)"/>
      <use xlink:href="#DejaVuSans-6c" transform="translate(765.324219 0)"/>
      <use xlink:href="#DejaVuSans-65" transform="translate(793.107422 0)"/>
      <use xlink:href="#DejaVuSans-74" transform="translate(854.630859 0)"/>
      <use xlink:href="#DejaVuSans-69" transform="translate(893.839844 0)"/>
      <use xlink:href="#DejaVuSans-6f" transform="translate(921.623047 0)"/>
      <use xlink:href="#DejaVuSans-6e" transform="translate(982.804688 0)"/>
      <use xlink:href="#DejaVuSans-20" transform="translate(1046.183594 0)"/>
      <use xlink:href="#DejaVuSans-74" transform="translate(1077.970703 0)"/>
      <use xlink:href="#DejaVuSans-6f" transform="translate(1117.179688 0)"/>
      <use xlink:href="#DejaVuSans-6b" transform="translate(1178.361328 0)"/>
      <use xlink:href="#DejaVuSans-65" transform="translate(1232.646484 0)"/>
      <use xlink:href="#DejaVuSans-6e" transform="translate(1294.169922 0)"/>
      <use xlink:href="#DejaVuSans-73" transform="translate(1357.548828 0)"/>
     </g>
    </g>
   </g>
   <g id="patch_7">
    <path d="M 92.16 382.464 
L 92.16 82.944 
" style="fill: none; stroke: #000000; stroke-width: 0.8; stroke-linejoin: miter; stroke-linecap: square"/>
   </g>
   <g id="patch_8">
    <path d="M 92.16 382.464 
L 866.304 382.464 
" style="fill: none; stroke: #000000; stroke-width: 0.8; stroke-linejoin: miter; stroke-linecap: square"/>
   </g>
   <g id="text_13">
    <!-- 39 -->
    <g transform="translate(188.373585 316.561975) scale(0.12 -0.12)">
     <defs>
      <path id="DejaVuSans-33" d="M 2597 2516 
Q 3050 2419 3304 2112 
Q 3559 1806 3559 1356 
Q 3559 666 3084 287 
Q 2609 -91 1734 -91 
Q 1441 -91 1130 -33 
Q 819 25 488 141 
L 488 750 
Q 750 597 1062 519 
Q 1375 441 1716 441 
Q 2309 441 2620 675 
Q 2931 909 2931 1356 
Q 2931 1769 2642 2001 
Q 2353 2234 1838 2234 
L 1294 2234 
L 1294 2753 
L 1863 2753 
Q 2328 2753 2575 2939 
Q 2822 3125 2822 3475 
Q 2822 3834 2567 4026 
Q 2313 4219 1838 4219 
Q 1578 4219 1281 4162 
Q 984 4106 628 3988 
L 628 4550 
Q 988 4650 1302 4700 
Q 1616 4750 1894 4750 
Q 2613 4750 3031 4423 
Q 3450 4097 3450 3541 
Q 3450 3153 3228 2886 
Q 3006 2619 2597 2516 
z
" transform="scale(0.015625)"/>
      <path id="DejaVuSans-39" d="M 703 97 
L 703 672 
Q 941 559 1184 500 
Q 1428 441 1663 441 
Q 2288 441 2617 861 
Q 2947 1281 2994 2138 
Q 2813 1869 2534 1725 
Q 2256 1581 1919 1581 
Q 1219 1581 811 2004 
Q 403 2428 403 3163 
Q 403 3881 828 4315 
Q 1253 4750 1959 4750 
Q 2769 4750 3195 4129 
Q 3622 3509 3622 2328 
Q 3622 1225 3098 567 
Q 2575 -91 1691 -91 
Q 1453 -91 1209 -44 
Q 966 3 703 97 
z
M 1959 2075 
Q 2384 2075 2632 2365 
Q 2881 2656 2881 3163 
Q 2881 3666 2632 3958 
Q 2384 4250 1959 4250 
Q 1534 4250 1286 3958 
Q 1038 3666 1038 3163 
Q 1038 2656 1286 2365 
Q 1534 2075 1959 2075 
z
" transform="scale(0.015625)"/>
     </defs>
     <use xlink:href="#DejaVuSans-33"/>
     <use xlink:href="#DejaVuSans-39" transform="translate(63.623047 0)"/>
    </g>
   </g>
   <g id="text_14">
    <!-- 8 -->
    <g transform="translate(621.317471 362.987575) scale(0.12 -0.12)">
     <defs>
      <path id="DejaVuSans-38" d="M 2034 2216 
Q 1584 2216 1326 1975 
Q 1069 1734 1069 1313 
Q 1069 891 1326 650 
Q 1584 409 2034 409 
Q 2484 409 2743 651 
Q 3003 894 3003 1313 
Q 3003 1734 2745 1975 
Q 2488 2216 2034 2216 
z
M 1403 2484 
Q 997 2584 770 2862 
Q 544 3141 544 3541 
Q 544 4100 942 4425 
Q 1341 4750 2034 4750 
Q 2731 4750 3128 4425 
Q 3525 4100 3525 3541 
Q 3525 3141 3298 2862 
Q 3072 2584 2669 2484 
Q 3125 2378 3379 2068 
Q 3634 1759 3634 1313 
Q 3634 634 3220 271 
Q 2806 -91 2034 -91 
Q 1263 -91 848 271 
Q 434 634 434 1313 
Q 434 1759 690 2068 
Q 947 2378 1403 2484 
z
M 1172 3481 
Q 1172 3119 1398 2916 
Q 1625 2713 2034 2713 
Q 2441 2713 2670 2916 
Q 2900 3119 2900 3481 
Q 2900 3844 2670 4047 
Q 2441 4250 2034 4250 
Q 1625 4250 1398 4047 
Q 1172 3844 1172 3481 
z
" transform="scale(0.015625)"/>
     </defs>
     <use xlink:href="#DejaVuSans-38"/>
    </g>
   </g>
   <g id="text_15">
    <!-- 168 -->
    <g transform="translate(321.876529 123.371575) scale(0.12 -0.12)">
     <defs>
      <path id="DejaVuSans-36" d="M 2113 2584 
Q 1688 2584 1439 2293 
Q 1191 2003 1191 1497 
Q 1191 994 1439 701 
Q 1688 409 2113 409 
Q 2538 409 2786 701 
Q 3034 994 3034 1497 
Q 3034 2003 2786 2293 
Q 2538 2584 2113 2584 
z
M 3366 4563 
L 3366 3988 
Q 3128 4100 2886 4159 
Q 2644 4219 2406 4219 
Q 1781 4219 1451 3797 
Q 1122 3375 1075 2522 
Q 1259 2794 1537 2939 
Q 1816 3084 2150 3084 
Q 2853 3084 3261 2657 
Q 3669 2231 3669 1497 
Q 3669 778 3244 343 
Q 2819 -91 2113 -91 
Q 1303 -91 875 529 
Q 447 1150 447 2328 
Q 447 3434 972 4092 
Q 1497 4750 2381 4750 
Q 2619 4750 2861 4703 
Q 3103 4656 3366 4563 
z
" transform="scale(0.015625)"/>
     </defs>
     <use xlink:href="#DejaVuSans-31"/>
     <use xlink:href="#DejaVuSans-36" transform="translate(63.623047 0)"/>
     <use xlink:href="#DejaVuSans-38" transform="translate(127.246094 0)"/>
    </g>
   </g>
   <g id="text_16">
    <!-- 74 -->
    <g transform="translate(754.820415 264.145975) scale(0.12 -0.12)">
     <defs>
      <path id="DejaVuSans-34" d="M 2419 4116 
L 825 1625 
L 2419 1625 
L 2419 4116 
z
M 2253 4666 
L 3047 4666 
L 3047 1625 
L 3713 1625 
L 3713 1100 
L 3047 1100 
L 3047 0 
L 2419 0 
L 2419 1100 
L 313 1100 
L 313 1709 
L 2253 4666 
z
" transform="scale(0.015625)"/>
     </defs>
     <use xlink:href="#DejaVuSans-37"/>
     <use xlink:href="#DejaVuSans-34" transform="translate(63.623047 0)"/>
    </g>
   </g>
   <g id="legend_1">
    <g id="patch_9">
     <path d="M 705.296187 99.542438 
L 725.296187 99.542438 
L 725.296187 92.542438 
L 705.296187 92.542438 
z
" style="fill: #1f77b4"/>
    </g>
    <g id="text_17">
     <!-- Standalone MLX-LM -->
     <g transform="translate(733.296187 99.542438) scale(0.1 -0.1)">
      <defs>
       <path id="DejaVuSans-4d" d="M 628 4666 
L 1569 4666 
L 2759 1491 
L 3956 4666 
L 4897 4666 
L 4897 0 
L 4281 0 
L 4281 4097 
L 3078 897 
L 2444 897 
L 1241 4097 
L 1241 0 
L 628 0 
L 628 4666 
z
" transform="scale(0.015625)"/>
       <path id="DejaVuSans-58" d="M 403 4666 
L 1081 4666 
L 2241 2931 
L 3406 4666 
L 4084 4666 
L 2584 2425 
L 4184 0 
L 3506 0 
L 2194 1984 
L 872 0 
L 191 0 
L 1856 2491 
L 403 4666 
z
" transform="scale(0.015625)"/>
       <path id="DejaVuSans-2d" d="M 313 2009 
L 1997 2009 
L 1997 1497 
L 313 1497 
L 313 2009 
z
" transform="scale(0.015625)"/>
      </defs>
      <use xlink:href="#DejaVuSans-53"/>
      <use xlink:href="#DejaVuSans-74" transform="translate(63.476562 0)"/>
      <use xlink:href="#DejaVuSans-61" transform="translate(102.685547 0)"/>
      <use xlink:href="#DejaVuSans-6e" transform="translate(163.964844 0)"/>
      <use xlink:href="#DejaVuSans-64" transform="translate(227.34375 0)"/>
      <use xlink:href="#DejaVuSans-61" transform="translate(290.820312 0)"/>
      <use xlink:href="#DejaVuSans-6c" transform="translate(352.099609 0)"/>
      <use xlink:href="#DejaVuSans-6f" transform="translate(379.882812 0)"/>
      <use xlink:href="#DejaVuSans-6e" transform="translate(441.064453 0)"/>
      <use xlink:href="#DejaVuSans-65" transform="translate(504.443359 0)"/>
      <use xlink:href="#DejaVuSans-20" transform="translate(565.966797 0)"/>
      <use xlink:href="#DejaVuSans-4d" transform="translate(597.753906 0)"/>
      <use xlink:href="#DejaVuSans-4c" transform="translate(684.033203 0)"/>
      <use xlink:href="#DejaVuSans-58" transform="translate(739.746094 0)"/>
      <use xlink:href="#DejaVuSans-2d" transform="translate(803.251953 0)"/>
      <use xlink:href="#DejaVuSans-4c" transform="translate(839.335938 0)"/>
      <use xlink:href="#DejaVuSans-4d" transform="translate(895.048828 0)"/>
     </g>
    </g>
    <g id="patch_10">
     <path d="M 705.296187 114.220563 
L 725.296187 114.220563 
L 725.296187 107.220563 
L 705.296187 107.220563 
z
" style="fill: #ff7f0e"/>
    </g>
    <g id="text_18">
     <!-- oMLX, reasoning present -->
     <g transform="translate(733.296187 114.220563) scale(0.1 -0.1)">
      <defs>
       <path id="DejaVuSans-2c" d="M 750 794 
L 1409 794 
L 1409 256 
L 897 -744 
L 494 -744 
L 750 256 
L 750 794 
z
" transform="scale(0.015625)"/>
       <path id="DejaVuSans-67" d="M 2906 1791 
Q 2906 2416 2648 2759 
Q 2391 3103 1925 3103 
Q 1463 3103 1205 2759 
Q 947 2416 947 1791 
Q 947 1169 1205 825 
Q 1463 481 1925 481 
Q 2391 481 2648 825 
Q 2906 1169 2906 1791 
z
M 3481 434 
Q 3481 -459 3084 -895 
Q 2688 -1331 1869 -1331 
Q 1566 -1331 1297 -1286 
Q 1028 -1241 775 -1147 
L 775 -588 
Q 1028 -725 1275 -790 
Q 1522 -856 1778 -856 
Q 2344 -856 2625 -561 
Q 2906 -266 2906 331 
L 2906 616 
Q 2728 306 2450 153 
Q 2172 0 1784 0 
Q 1141 0 747 490 
Q 353 981 353 1791 
Q 353 2603 747 3093 
Q 1141 3584 1784 3584 
Q 2172 3584 2450 3431 
Q 2728 3278 2906 2969 
L 2906 3500 
L 3481 3500 
L 3481 434 
z
" transform="scale(0.015625)"/>
      </defs>
      <use xlink:href="#DejaVuSans-6f"/>
      <use xlink:href="#DejaVuSans-4d" transform="translate(61.181641 0)"/>
      <use xlink:href="#DejaVuSans-4c" transform="translate(147.460938 0)"/>
      <use xlink:href="#DejaVuSans-58" transform="translate(203.173828 0)"/>
      <use xlink:href="#DejaVuSans-2c" transform="translate(271.679688 0)"/>
      <use xlink:href="#DejaVuSans-20" transform="translate(303.466797 0)"/>
      <use xlink:href="#DejaVuSans-72" transform="translate(335.253906 0)"/>
      <use xlink:href="#DejaVuSans-65" transform="translate(374.117188 0)"/>
      <use xlink:href="#DejaVuSans-61" transform="translate(435.640625 0)"/>
      <use xlink:href="#DejaVuSans-73" transform="translate(496.919922 0)"/>
      <use xlink:href="#DejaVuSans-6f" transform="translate(549.019531 0)"/>
      <use xlink:href="#DejaVuSans-6e" transform="translate(610.201172 0)"/>
      <use xlink:href="#DejaVuSans-69" transform="translate(673.580078 0)"/>
      <use xlink:href="#DejaVuSans-6e" transform="translate(701.363281 0)"/>
      <use xlink:href="#DejaVuSans-67" transform="translate(764.742188 0)"/>
      <use xlink:href="#DejaVuSans-20" transform="translate(828.21875 0)"/>
      <use xlink:href="#DejaVuSans-70" transform="translate(860.005859 0)"/>
      <use xlink:href="#DejaVuSans-72" transform="translate(923.482422 0)"/>
      <use xlink:href="#DejaVuSans-65" transform="translate(962.345703 0)"/>
      <use xlink:href="#DejaVuSans-73" transform="translate(1023.869141 0)"/>
      <use xlink:href="#DejaVuSans-65" transform="translate(1075.96875 0)"/>
      <use xlink:href="#DejaVuSans-6e" transform="translate(1137.492188 0)"/>
      <use xlink:href="#DejaVuSans-74" transform="translate(1200.871094 0)"/>
     </g>
    </g>
   </g>
  </g>
  <g id="text_19">
   <!-- oMLX’s passing 3-bit run generated much more than the final answer -->
   <g transform="translate(36.864 28.261031) scale(0.19 -0.19)">
    <defs>
     <path id="DejaVuSans-Bold-6f" d="M 2203 2784 
Q 1831 2784 1636 2517 
Q 1441 2250 1441 1747 
Q 1441 1244 1636 976 
Q 1831 709 2203 709 
Q 2569 709 2762 976 
Q 2956 1244 2956 1747 
Q 2956 2250 2762 2517 
Q 2569 2784 2203 2784 
z
M 2203 3584 
Q 3106 3584 3614 3096 
Q 4122 2609 4122 1747 
Q 4122 884 3614 396 
Q 3106 -91 2203 -91 
Q 1297 -91 786 396 
Q 275 884 275 1747 
Q 275 2609 786 3096 
Q 1297 3584 2203 3584 
z
" transform="scale(0.015625)"/>
     <path id="DejaVuSans-Bold-4d" d="M 588 4666 
L 2119 4666 
L 3181 2169 
L 4250 4666 
L 5778 4666 
L 5778 0 
L 4641 0 
L 4641 3413 
L 3566 897 
L 2803 897 
L 1728 3413 
L 1728 0 
L 588 0 
L 588 4666 
z
" transform="scale(0.015625)"/>
     <path id="DejaVuSans-Bold-4c" d="M 588 4666 
L 1791 4666 
L 1791 909 
L 3903 909 
L 3903 0 
L 588 0 
L 588 4666 
z
" transform="scale(0.015625)"/>
     <path id="DejaVuSans-Bold-58" d="M 3188 2381 
L 4806 0 
L 3553 0 
L 2463 1594 
L 1381 0 
L 122 0 
L 1741 2381 
L 184 4666 
L 1441 4666 
L 2463 3163 
L 3481 4666 
L 4744 4666 
L 3188 2381 
z
" transform="scale(0.015625)"/>
     <path id="DejaVuSans-Bold-2019" d="M 716 4666 
L 1778 4666 
L 1778 3775 
L 1069 2675 
L 403 2675 
L 716 3775 
L 716 4666 
z
" transform="scale(0.015625)"/>
     <path id="DejaVuSans-Bold-73" d="M 3272 3391 
L 3272 2541 
Q 2913 2691 2578 2766 
Q 2244 2841 1947 2841 
Q 1628 2841 1473 2761 
Q 1319 2681 1319 2516 
Q 1319 2381 1436 2309 
Q 1553 2238 1856 2203 
L 2053 2175 
Q 2913 2066 3209 1816 
Q 3506 1566 3506 1031 
Q 3506 472 3093 190 
Q 2681 -91 1863 -91 
Q 1516 -91 1145 -36 
Q 775 19 384 128 
L 384 978 
Q 719 816 1070 734 
Q 1422 653 1784 653 
Q 2113 653 2278 743 
Q 2444 834 2444 1013 
Q 2444 1163 2330 1236 
Q 2216 1309 1875 1350 
L 1678 1375 
Q 931 1469 631 1722 
Q 331 1975 331 2491 
Q 331 3047 712 3315 
Q 1094 3584 1881 3584 
Q 2191 3584 2531 3537 
Q 2872 3491 3272 3391 
z
" transform="scale(0.015625)"/>
     <path id="DejaVuSans-Bold-20" transform="scale(0.015625)"/>
     <path id="DejaVuSans-Bold-70" d="M 1656 506 
L 1656 -1331 
L 538 -1331 
L 538 3500 
L 1656 3500 
L 1656 2988 
Q 1888 3294 2169 3439 
Q 2450 3584 2816 3584 
Q 3463 3584 3878 3070 
Q 4294 2556 4294 1747 
Q 4294 938 3878 423 
Q 3463 -91 2816 -91 
Q 2450 -91 2169 54 
Q 1888 200 1656 506 
z
M 2400 2772 
Q 2041 2772 1848 2508 
Q 1656 2244 1656 1747 
Q 1656 1250 1848 986 
Q 2041 722 2400 722 
Q 2759 722 2948 984 
Q 3138 1247 3138 1747 
Q 3138 2247 2948 2509 
Q 2759 2772 2400 2772 
z
" transform="scale(0.015625)"/>
     <path id="DejaVuSans-Bold-61" d="M 2106 1575 
Q 1756 1575 1579 1456 
Q 1403 1338 1403 1106 
Q 1403 894 1545 773 
Q 1688 653 1941 653 
Q 2256 653 2472 879 
Q 2688 1106 2688 1447 
L 2688 1575 
L 2106 1575 
z
M 3816 1997 
L 3816 0 
L 2688 0 
L 2688 519 
Q 2463 200 2181 54 
Q 1900 -91 1497 -91 
Q 953 -91 614 226 
Q 275 544 275 1050 
Q 275 1666 698 1953 
Q 1122 2241 2028 2241 
L 2688 2241 
L 2688 2328 
Q 2688 2594 2478 2717 
Q 2269 2841 1825 2841 
Q 1466 2841 1156 2769 
Q 847 2697 581 2553 
L 581 3406 
Q 941 3494 1303 3539 
Q 1666 3584 2028 3584 
Q 2975 3584 3395 3211 
Q 3816 2838 3816 1997 
z
" transform="scale(0.015625)"/>
     <path id="DejaVuSans-Bold-69" d="M 538 3500 
L 1656 3500 
L 1656 0 
L 538 0 
L 538 3500 
z
M 538 4863 
L 1656 4863 
L 1656 3950 
L 538 3950 
L 538 4863 
z
" transform="scale(0.015625)"/>
     <path id="DejaVuSans-Bold-6e" d="M 4056 2131 
L 4056 0 
L 2931 0 
L 2931 347 
L 2931 1631 
Q 2931 2084 2911 2256 
Q 2891 2428 2841 2509 
Q 2775 2619 2662 2680 
Q 2550 2741 2406 2741 
Q 2056 2741 1856 2470 
Q 1656 2200 1656 1722 
L 1656 0 
L 538 0 
L 538 3500 
L 1656 3500 
L 1656 2988 
Q 1909 3294 2193 3439 
Q 2478 3584 2822 3584 
Q 3428 3584 3742 3212 
Q 4056 2841 4056 2131 
z
" transform="scale(0.015625)"/>
     <path id="DejaVuSans-Bold-67" d="M 2919 594 
Q 2688 288 2409 144 
Q 2131 0 1766 0 
Q 1125 0 706 504 
Q 288 1009 288 1791 
Q 288 2575 706 3076 
Q 1125 3578 1766 3578 
Q 2131 3578 2409 3434 
Q 2688 3291 2919 2981 
L 2919 3500 
L 4044 3500 
L 4044 353 
Q 4044 -491 3511 -936 
Q 2978 -1381 1966 -1381 
Q 1638 -1381 1331 -1331 
Q 1025 -1281 716 -1178 
L 716 -306 
Q 1009 -475 1290 -558 
Q 1572 -641 1856 -641 
Q 2406 -641 2662 -400 
Q 2919 -159 2919 353 
L 2919 594 
z
M 2181 2772 
Q 1834 2772 1640 2515 
Q 1447 2259 1447 1791 
Q 1447 1309 1634 1061 
Q 1822 813 2181 813 
Q 2531 813 2725 1069 
Q 2919 1325 2919 1791 
Q 2919 2259 2725 2515 
Q 2531 2772 2181 2772 
z
" transform="scale(0.015625)"/>
     <path id="DejaVuSans-Bold-33" d="M 2981 2516 
Q 3453 2394 3698 2092 
Q 3944 1791 3944 1325 
Q 3944 631 3412 270 
Q 2881 -91 1863 -91 
Q 1503 -91 1142 -33 
Q 781 25 428 141 
L 428 1069 
Q 766 900 1098 814 
Q 1431 728 1753 728 
Q 2231 728 2486 893 
Q 2741 1059 2741 1369 
Q 2741 1688 2480 1852 
Q 2219 2016 1709 2016 
L 1228 2016 
L 1228 2791 
L 1734 2791 
Q 2188 2791 2409 2933 
Q 2631 3075 2631 3366 
Q 2631 3634 2415 3781 
Q 2200 3928 1806 3928 
Q 1516 3928 1219 3862 
Q 922 3797 628 3669 
L 628 4550 
Q 984 4650 1334 4700 
Q 1684 4750 2022 4750 
Q 2931 4750 3382 4451 
Q 3834 4153 3834 3553 
Q 3834 3144 3618 2883 
Q 3403 2622 2981 2516 
z
" transform="scale(0.015625)"/>
     <path id="DejaVuSans-Bold-2d" d="M 347 2297 
L 2309 2297 
L 2309 1388 
L 347 1388 
L 347 2297 
z
" transform="scale(0.015625)"/>
     <path id="DejaVuSans-Bold-62" d="M 2400 722 
Q 2759 722 2948 984 
Q 3138 1247 3138 1747 
Q 3138 2247 2948 2509 
Q 2759 2772 2400 2772 
Q 2041 2772 1848 2508 
Q 1656 2244 1656 1747 
Q 1656 1250 1848 986 
Q 2041 722 2400 722 
z
M 1656 2988 
Q 1888 3294 2169 3439 
Q 2450 3584 2816 3584 
Q 3463 3584 3878 3070 
Q 4294 2556 4294 1747 
Q 4294 938 3878 423 
Q 3463 -91 2816 -91 
Q 2450 -91 2169 54 
Q 1888 200 1656 506 
L 1656 0 
L 538 0 
L 538 4863 
L 1656 4863 
L 1656 2988 
z
" transform="scale(0.015625)"/>
     <path id="DejaVuSans-Bold-74" d="M 1759 4494 
L 1759 3500 
L 2913 3500 
L 2913 2700 
L 1759 2700 
L 1759 1216 
Q 1759 972 1856 886 
Q 1953 800 2241 800 
L 2816 800 
L 2816 0 
L 1856 0 
Q 1194 0 917 276 
Q 641 553 641 1216 
L 641 2700 
L 84 2700 
L 84 3500 
L 641 3500 
L 641 4494 
L 1759 4494 
z
" transform="scale(0.015625)"/>
     <path id="DejaVuSans-Bold-72" d="M 3138 2547 
Q 2991 2616 2845 2648 
Q 2700 2681 2553 2681 
Q 2122 2681 1889 2404 
Q 1656 2128 1656 1613 
L 1656 0 
L 538 0 
L 538 3500 
L 1656 3500 
L 1656 2925 
Q 1872 3269 2151 3426 
Q 2431 3584 2822 3584 
Q 2878 3584 2943 3579 
Q 3009 3575 3134 3559 
L 3138 2547 
z
" transform="scale(0.015625)"/>
     <path id="DejaVuSans-Bold-75" d="M 500 1363 
L 500 3500 
L 1625 3500 
L 1625 3150 
Q 1625 2866 1622 2436 
Q 1619 2006 1619 1863 
Q 1619 1441 1641 1255 
Q 1663 1069 1716 984 
Q 1784 875 1895 815 
Q 2006 756 2150 756 
Q 2500 756 2700 1025 
Q 2900 1294 2900 1772 
L 2900 3500 
L 4019 3500 
L 4019 0 
L 2900 0 
L 2900 506 
Q 2647 200 2364 54 
Q 2081 -91 1741 -91 
Q 1134 -91 817 281 
Q 500 653 500 1363 
z
" transform="scale(0.015625)"/>
     <path id="DejaVuSans-Bold-65" d="M 4031 1759 
L 4031 1441 
L 1416 1441 
Q 1456 1047 1700 850 
Q 1944 653 2381 653 
Q 2734 653 3104 758 
Q 3475 863 3866 1075 
L 3866 213 
Q 3469 63 3072 -14 
Q 2675 -91 2278 -91 
Q 1328 -91 801 392 
Q 275 875 275 1747 
Q 275 2603 792 3093 
Q 1309 3584 2216 3584 
Q 3041 3584 3536 3087 
Q 4031 2591 4031 1759 
z
M 2881 2131 
Q 2881 2450 2695 2645 
Q 2509 2841 2209 2841 
Q 1884 2841 1681 2658 
Q 1478 2475 1428 2131 
L 2881 2131 
z
" transform="scale(0.015625)"/>
     <path id="DejaVuSans-Bold-64" d="M 2919 2988 
L 2919 4863 
L 4044 4863 
L 4044 0 
L 2919 0 
L 2919 506 
Q 2688 197 2409 53 
Q 2131 -91 1766 -91 
Q 1119 -91 703 423 
Q 288 938 288 1747 
Q 288 2556 703 3070 
Q 1119 3584 1766 3584 
Q 2128 3584 2408 3439 
Q 2688 3294 2919 2988 
z
M 2181 722 
Q 2541 722 2730 984 
Q 2919 1247 2919 1747 
Q 2919 2247 2730 2509 
Q 2541 2772 2181 2772 
Q 1825 2772 1636 2509 
Q 1447 2247 1447 1747 
Q 1447 1247 1636 984 
Q 1825 722 2181 722 
z
" transform="scale(0.015625)"/>
     <path id="DejaVuSans-Bold-6d" d="M 3781 2919 
Q 3994 3244 4286 3414 
Q 4578 3584 4928 3584 
Q 5531 3584 5847 3212 
Q 6163 2841 6163 2131 
L 6163 0 
L 5038 0 
L 5038 1825 
Q 5041 1866 5042 1909 
Q 5044 1953 5044 2034 
Q 5044 2406 4934 2573 
Q 4825 2741 4581 2741 
Q 4263 2741 4089 2478 
Q 3916 2216 3909 1719 
L 3909 0 
L 2784 0 
L 2784 1825 
Q 2784 2406 2684 2573 
Q 2584 2741 2328 2741 
Q 2006 2741 1831 2477 
Q 1656 2213 1656 1722 
L 1656 0 
L 531 0 
L 531 3500 
L 1656 3500 
L 1656 2988 
Q 1863 3284 2130 3434 
Q 2397 3584 2719 3584 
Q 3081 3584 3359 3409 
Q 3638 3234 3781 2919 
z
" transform="scale(0.015625)"/>
     <path id="DejaVuSans-Bold-63" d="M 3366 3391 
L 3366 2478 
Q 3138 2634 2908 2709 
Q 2678 2784 2431 2784 
Q 1963 2784 1702 2511 
Q 1441 2238 1441 1747 
Q 1441 1256 1702 982 
Q 1963 709 2431 709 
Q 2694 709 2930 787 
Q 3166 866 3366 1019 
L 3366 103 
Q 3103 6 2833 -42 
Q 2563 -91 2291 -91 
Q 1344 -91 809 395 
Q 275 881 275 1747 
Q 275 2613 809 3098 
Q 1344 3584 2291 3584 
Q 2566 3584 2833 3536 
Q 3100 3488 3366 3391 
z
" transform="scale(0.015625)"/>
     <path id="DejaVuSans-Bold-68" d="M 4056 2131 
L 4056 0 
L 2931 0 
L 2931 347 
L 2931 1625 
Q 2931 2084 2911 2256 
Q 2891 2428 2841 2509 
Q 2775 2619 2662 2680 
Q 2550 2741 2406 2741 
Q 2056 2741 1856 2470 
Q 1656 2200 1656 1722 
L 1656 0 
L 538 0 
L 538 4863 
L 1656 4863 
L 1656 2988 
Q 1909 3294 2193 3439 
Q 2478 3584 2822 3584 
Q 3428 3584 3742 3212 
Q 4056 2841 4056 2131 
z
" transform="scale(0.015625)"/>
     <path id="DejaVuSans-Bold-66" d="M 2841 4863 
L 2841 4128 
L 2222 4128 
Q 1984 4128 1890 4042 
Q 1797 3956 1797 3744 
L 1797 3500 
L 2753 3500 
L 2753 2700 
L 1797 2700 
L 1797 0 
L 678 0 
L 678 2700 
L 122 2700 
L 122 3500 
L 678 3500 
L 678 3744 
Q 678 4316 997 4589 
Q 1316 4863 1984 4863 
L 2841 4863 
z
" transform="scale(0.015625)"/>
     <path id="DejaVuSans-Bold-6c" d="M 538 4863 
L 1656 4863 
L 1656 0 
L 538 0 
L 538 4863 
z
" transform="scale(0.015625)"/>
     <path id="DejaVuSans-Bold-77" d="M 225 3500 
L 1313 3500 
L 1900 1088 
L 2491 3500 
L 3425 3500 
L 4013 1113 
L 4603 3500 
L 5691 3500 
L 4769 0 
L 3547 0 
L 2956 2406 
L 2369 0 
L 1147 0 
L 225 3500 
z
" transform="scale(0.015625)"/>
    </defs>
    <use xlink:href="#DejaVuSans-Bold-6f"/>
    <use xlink:href="#DejaVuSans-Bold-4d" transform="translate(68.701172 0)"/>
    <use xlink:href="#DejaVuSans-Bold-4c" transform="translate(168.212891 0)"/>
    <use xlink:href="#DejaVuSans-Bold-58" transform="translate(231.933594 0)"/>
    <use xlink:href="#DejaVuSans-Bold-2019" transform="translate(309.033203 0)"/>
    <use xlink:href="#DejaVuSans-Bold-73" transform="translate(347.021484 0)"/>
    <use xlink:href="#DejaVuSans-Bold-20" transform="translate(406.542969 0)"/>
    <use xlink:href="#DejaVuSans-Bold-70" transform="translate(441.357422 0)"/>
    <use xlink:href="#DejaVuSans-Bold-61" transform="translate(512.939453 0)"/>
    <use xlink:href="#DejaVuSans-Bold-73" transform="translate(580.419922 0)"/>
    <use xlink:href="#DejaVuSans-Bold-73" transform="translate(639.941406 0)"/>
    <use xlink:href="#DejaVuSans-Bold-69" transform="translate(699.462891 0)"/>
    <use xlink:href="#DejaVuSans-Bold-6e" transform="translate(733.740234 0)"/>
    <use xlink:href="#DejaVuSans-Bold-67" transform="translate(804.931641 0)"/>
    <use xlink:href="#DejaVuSans-Bold-20" transform="translate(876.513672 0)"/>
    <use xlink:href="#DejaVuSans-Bold-33" transform="translate(911.328125 0)"/>
    <use xlink:href="#DejaVuSans-Bold-2d" transform="translate(980.908203 0)"/>
    <use xlink:href="#DejaVuSans-Bold-62" transform="translate(1022.412109 0)"/>
    <use xlink:href="#DejaVuSans-Bold-69" transform="translate(1093.994141 0)"/>
    <use xlink:href="#DejaVuSans-Bold-74" transform="translate(1128.271484 0)"/>
    <use xlink:href="#DejaVuSans-Bold-20" transform="translate(1176.074219 0)"/>
    <use xlink:href="#DejaVuSans-Bold-72" transform="translate(1210.888672 0)"/>
    <use xlink:href="#DejaVuSans-Bold-75" transform="translate(1260.205078 0)"/>
    <use xlink:href="#DejaVuSans-Bold-6e" transform="translate(1331.396484 0)"/>
    <use xlink:href="#DejaVuSans-Bold-20" transform="translate(1402.587891 0)"/>
    <use xlink:href="#DejaVuSans-Bold-67" transform="translate(1437.402344 0)"/>
    <use xlink:href="#DejaVuSans-Bold-65" transform="translate(1508.984375 0)"/>
    <use xlink:href="#DejaVuSans-Bold-6e" transform="translate(1576.806641 0)"/>
    <use xlink:href="#DejaVuSans-Bold-65" transform="translate(1647.998047 0)"/>
    <use xlink:href="#DejaVuSans-Bold-72" transform="translate(1715.820312 0)"/>
    <use xlink:href="#DejaVuSans-Bold-61" transform="translate(1765.136719 0)"/>
    <use xlink:href="#DejaVuSans-Bold-74" transform="translate(1832.617188 0)"/>
    <use xlink:href="#DejaVuSans-Bold-65" transform="translate(1880.419922 0)"/>
    <use xlink:href="#DejaVuSans-Bold-64" transform="translate(1948.242188 0)"/>
    <use xlink:href="#DejaVuSans-Bold-20" transform="translate(2019.824219 0)"/>
    <use xlink:href="#DejaVuSans-Bold-6d" transform="translate(2054.638672 0)"/>
    <use xlink:href="#DejaVuSans-Bold-75" transform="translate(2158.837891 0)"/>
    <use xlink:href="#DejaVuSans-Bold-63" transform="translate(2230.029297 0)"/>
    <use xlink:href="#DejaVuSans-Bold-68" transform="translate(2289.306641 0)"/>
    <use xlink:href="#DejaVuSans-Bold-20" transform="translate(2360.498047 0)"/>
    <use xlink:href="#DejaVuSans-Bold-6d" transform="translate(2395.3125 0)"/>
    <use xlink:href="#DejaVuSans-Bold-6f" transform="translate(2499.511719 0)"/>
    <use xlink:href="#DejaVuSans-Bold-72" transform="translate(2568.212891 0)"/>
    <use xlink:href="#DejaVuSans-Bold-65" transform="translate(2617.529297 0)"/>
    <use xlink:href="#DejaVuSans-Bold-20" transform="translate(2685.351562 0)"/>
    <use xlink:href="#DejaVuSans-Bold-74" transform="translate(2720.166016 0)"/>
    <use xlink:href="#DejaVuSans-Bold-68" transform="translate(2767.96875 0)"/>
    <use xlink:href="#DejaVuSans-Bold-61" transform="translate(2839.160156 0)"/>
    <use xlink:href="#DejaVuSans-Bold-6e" transform="translate(2906.640625 0)"/>
    <use xlink:href="#DejaVuSans-Bold-20" transform="translate(2977.832031 0)"/>
    <use xlink:href="#DejaVuSans-Bold-74" transform="translate(3012.646484 0)"/>
    <use xlink:href="#DejaVuSans-Bold-68" transform="translate(3060.449219 0)"/>
    <use xlink:href="#DejaVuSans-Bold-65" transform="translate(3131.640625 0)"/>
    <use xlink:href="#DejaVuSans-Bold-20" transform="translate(3199.462891 0)"/>
    <use xlink:href="#DejaVuSans-Bold-66" transform="translate(3234.277344 0)"/>
    <use xlink:href="#DejaVuSans-Bold-69" transform="translate(3277.783203 0)"/>
    <use xlink:href="#DejaVuSans-Bold-6e" transform="translate(3312.060547 0)"/>
    <use xlink:href="#DejaVuSans-Bold-61" transform="translate(3383.251953 0)"/>
    <use xlink:href="#DejaVuSans-Bold-6c" transform="translate(3450.732422 0)"/>
    <use xlink:href="#DejaVuSans-Bold-20" transform="translate(3485.009766 0)"/>
    <use xlink:href="#DejaVuSans-Bold-61" transform="translate(3519.824219 0)"/>
    <use xlink:href="#DejaVuSans-Bold-6e" transform="translate(3587.304688 0)"/>
    <use xlink:href="#DejaVuSans-Bold-73" transform="translate(3658.496094 0)"/>
    <use xlink:href="#DejaVuSans-Bold-77" transform="translate(3718.017578 0)"/>
    <use xlink:href="#DejaVuSans-Bold-65" transform="translate(3810.400391 0)"/>
    <use xlink:href="#DejaVuSans-Bold-72" transform="translate(3878.222656 0)"/>
   </g>
  </g>
  <g id="text_20">
   <!-- Median completion tokens, three requests per task. The oMLX responses all include reasoning_content. -->
   <g transform="translate(36.864 49.450359) scale(0.105 -0.105)">
    <defs>
     <path id="DejaVuSans-68" d="M 3513 2113 
L 3513 0 
L 2938 0 
L 2938 2094 
Q 2938 2591 2744 2837 
Q 2550 3084 2163 3084 
Q 1697 3084 1428 2787 
Q 1159 2491 1159 1978 
L 1159 0 
L 581 0 
L 581 4863 
L 1159 4863 
L 1159 2956 
Q 1366 3272 1645 3428 
Q 1925 3584 2291 3584 
Q 2894 3584 3203 3211 
Q 3513 2838 3513 2113 
z
" transform="scale(0.015625)"/>
     <path id="DejaVuSans-71" d="M 947 1747 
Q 947 1113 1208 752 
Q 1469 391 1925 391 
Q 2381 391 2643 752 
Q 2906 1113 2906 1747 
Q 2906 2381 2643 2742 
Q 2381 3103 1925 3103 
Q 1469 3103 1208 2742 
Q 947 2381 947 1747 
z
M 2906 525 
Q 2725 213 2448 61 
Q 2172 -91 1784 -91 
Q 1150 -91 751 415 
Q 353 922 353 1747 
Q 353 2572 751 3078 
Q 1150 3584 1784 3584 
Q 2172 3584 2448 3432 
Q 2725 3281 2906 2969 
L 2906 3500 
L 3481 3500 
L 3481 -1331 
L 2906 -1331 
L 2906 525 
z
" transform="scale(0.015625)"/>
     <path id="DejaVuSans-75" d="M 544 1381 
L 544 3500 
L 1119 3500 
L 1119 1403 
Q 1119 906 1312 657 
Q 1506 409 1894 409 
Q 2359 409 2629 706 
Q 2900 1003 2900 1516 
L 2900 3500 
L 3475 3500 
L 3475 0 
L 2900 0 
L 2900 538 
Q 2691 219 2414 64 
Q 2138 -91 1772 -91 
Q 1169 -91 856 284 
Q 544 659 544 1381 
z
M 1991 3584 
L 1991 3584 
z
" transform="scale(0.015625)"/>
     <path id="DejaVuSans-2e" d="M 684 794 
L 1344 794 
L 1344 0 
L 684 0 
L 684 794 
z
" transform="scale(0.015625)"/>
     <path id="DejaVuSans-54" d="M -19 4666 
L 3928 4666 
L 3928 4134 
L 2272 4134 
L 2272 0 
L 1638 0 
L 1638 4134 
L -19 4134 
L -19 4666 
z
" transform="scale(0.015625)"/>
     <path id="DejaVuSans-5f" d="M 3263 -1063 
L 3263 -1509 
L -63 -1509 
L -63 -1063 
L 3263 -1063 
z
" transform="scale(0.015625)"/>
    </defs>
    <use xlink:href="#DejaVuSans-4d"/>
    <use xlink:href="#DejaVuSans-65" transform="translate(86.279297 0)"/>
    <use xlink:href="#DejaVuSans-64" transform="translate(147.802734 0)"/>
    <use xlink:href="#DejaVuSans-69" transform="translate(211.279297 0)"/>
    <use xlink:href="#DejaVuSans-61" transform="translate(239.0625 0)"/>
    <use xlink:href="#DejaVuSans-6e" transform="translate(300.341797 0)"/>
    <use xlink:href="#DejaVuSans-20" transform="translate(363.720703 0)"/>
    <use xlink:href="#DejaVuSans-63" transform="translate(395.507812 0)"/>
    <use xlink:href="#DejaVuSans-6f" transform="translate(450.488281 0)"/>
    <use xlink:href="#DejaVuSans-6d" transform="translate(511.669922 0)"/>
    <use xlink:href="#DejaVuSans-70" transform="translate(609.082031 0)"/>
    <use xlink:href="#DejaVuSans-6c" transform="translate(672.558594 0)"/>
    <use xlink:href="#DejaVuSans-65" transform="translate(700.341797 0)"/>
    <use xlink:href="#DejaVuSans-74" transform="translate(761.865234 0)"/>
    <use xlink:href="#DejaVuSans-69" transform="translate(801.074219 0)"/>
    <use xlink:href="#DejaVuSans-6f" transform="translate(828.857422 0)"/>
    <use xlink:href="#DejaVuSans-6e" transform="translate(890.039062 0)"/>
    <use xlink:href="#DejaVuSans-20" transform="translate(953.417969 0)"/>
    <use xlink:href="#DejaVuSans-74" transform="translate(985.205078 0)"/>
    <use xlink:href="#DejaVuSans-6f" transform="translate(1024.414062 0)"/>
    <use xlink:href="#DejaVuSans-6b" transform="translate(1085.595703 0)"/>
    <use xlink:href="#DejaVuSans-65" transform="translate(1139.880859 0)"/>
    <use xlink:href="#DejaVuSans-6e" transform="translate(1201.404297 0)"/>
    <use xlink:href="#DejaVuSans-73" transform="translate(1264.783203 0)"/>
    <use xlink:href="#DejaVuSans-2c" transform="translate(1316.882812 0)"/>
    <use xlink:href="#DejaVuSans-20" transform="translate(1348.669922 0)"/>
    <use xlink:href="#DejaVuSans-74" transform="translate(1380.457031 0)"/>
    <use xlink:href="#DejaVuSans-68" transform="translate(1419.666016 0)"/>
    <use xlink:href="#DejaVuSans-72" transform="translate(1483.044922 0)"/>
    <use xlink:href="#DejaVuSans-65" transform="translate(1521.908203 0)"/>
    <use xlink:href="#DejaVuSans-65" transform="translate(1583.431641 0)"/>
    <use xlink:href="#DejaVuSans-20" transform="translate(1644.955078 0)"/>
    <use xlink:href="#DejaVuSans-72" transform="translate(1676.742188 0)"/>
    <use xlink:href="#DejaVuSans-65" transform="translate(1715.605469 0)"/>
    <use xlink:href="#DejaVuSans-71" transform="translate(1777.128906 0)"/>
    <use xlink:href="#DejaVuSans-75" transform="translate(1840.605469 0)"/>
    <use xlink:href="#DejaVuSans-65" transform="translate(1903.984375 0)"/>
    <use xlink:href="#DejaVuSans-73" transform="translate(1965.507812 0)"/>
    <use xlink:href="#DejaVuSans-74" transform="translate(2017.607422 0)"/>
    <use xlink:href="#DejaVuSans-73" transform="translate(2056.816406 0)"/>
    <use xlink:href="#DejaVuSans-20" transform="translate(2108.916016 0)"/>
    <use xlink:href="#DejaVuSans-70" transform="translate(2140.703125 0)"/>
    <use xlink:href="#DejaVuSans-65" transform="translate(2204.179688 0)"/>
    <use xlink:href="#DejaVuSans-72" transform="translate(2265.703125 0)"/>
    <use xlink:href="#DejaVuSans-20" transform="translate(2306.816406 0)"/>
    <use xlink:href="#DejaVuSans-74" transform="translate(2338.603516 0)"/>
    <use xlink:href="#DejaVuSans-61" transform="translate(2377.8125 0)"/>
    <use xlink:href="#DejaVuSans-73" transform="translate(2439.091797 0)"/>
    <use xlink:href="#DejaVuSans-6b" transform="translate(2491.191406 0)"/>
    <use xlink:href="#DejaVuSans-2e" transform="translate(2549.101562 0)"/>
    <use xlink:href="#DejaVuSans-20" transform="translate(2580.888672 0)"/>
    <use xlink:href="#DejaVuSans-54" transform="translate(2612.675781 0)"/>
    <use xlink:href="#DejaVuSans-68" transform="translate(2673.759766 0)"/>
    <use xlink:href="#DejaVuSans-65" transform="translate(2737.138672 0)"/>
    <use xlink:href="#DejaVuSans-20" transform="translate(2798.662109 0)"/>
    <use xlink:href="#DejaVuSans-6f" transform="translate(2830.449219 0)"/>
    <use xlink:href="#DejaVuSans-4d" transform="translate(2891.630859 0)"/>
    <use xlink:href="#DejaVuSans-4c" transform="translate(2977.910156 0)"/>
    <use xlink:href="#DejaVuSans-58" transform="translate(3033.623047 0)"/>
    <use xlink:href="#DejaVuSans-20" transform="translate(3102.128906 0)"/>
    <use xlink:href="#DejaVuSans-72" transform="translate(3133.916016 0)"/>
    <use xlink:href="#DejaVuSans-65" transform="translate(3172.779297 0)"/>
    <use xlink:href="#DejaVuSans-73" transform="translate(3234.302734 0)"/>
    <use xlink:href="#DejaVuSans-70" transform="translate(3286.402344 0)"/>
    <use xlink:href="#DejaVuSans-6f" transform="translate(3349.878906 0)"/>
    <use xlink:href="#DejaVuSans-6e" transform="translate(3411.060547 0)"/>
    <use xlink:href="#DejaVuSans-73" transform="translate(3474.439453 0)"/>
    <use xlink:href="#DejaVuSans-65" transform="translate(3526.539062 0)"/>
    <use xlink:href="#DejaVuSans-73" transform="translate(3588.0625 0)"/>
    <use xlink:href="#DejaVuSans-20" transform="translate(3640.162109 0)"/>
    <use xlink:href="#DejaVuSans-61" transform="translate(3671.949219 0)"/>
    <use xlink:href="#DejaVuSans-6c" transform="translate(3733.228516 0)"/>
    <use xlink:href="#DejaVuSans-6c" transform="translate(3761.011719 0)"/>
    <use xlink:href="#DejaVuSans-20" transform="translate(3788.794922 0)"/>
    <use xlink:href="#DejaVuSans-69" transform="translate(3820.582031 0)"/>
    <use xlink:href="#DejaVuSans-6e" transform="translate(3848.365234 0)"/>
    <use xlink:href="#DejaVuSans-63" transform="translate(3911.744141 0)"/>
    <use xlink:href="#DejaVuSans-6c" transform="translate(3966.724609 0)"/>
    <use xlink:href="#DejaVuSans-75" transform="translate(3994.507812 0)"/>
    <use xlink:href="#DejaVuSans-64" transform="translate(4057.886719 0)"/>
    <use xlink:href="#DejaVuSans-65" transform="translate(4121.363281 0)"/>
    <use xlink:href="#DejaVuSans-20" transform="translate(4182.886719 0)"/>
    <use xlink:href="#DejaVuSans-72" transform="translate(4214.673828 0)"/>
    <use xlink:href="#DejaVuSans-65" transform="translate(4253.537109 0)"/>
    <use xlink:href="#DejaVuSans-61" transform="translate(4315.060547 0)"/>
    <use xlink:href="#DejaVuSans-73" transform="translate(4376.339844 0)"/>
    <use xlink:href="#DejaVuSans-6f" transform="translate(4428.439453 0)"/>
    <use xlink:href="#DejaVuSans-6e" transform="translate(4489.621094 0)"/>
    <use xlink:href="#DejaVuSans-69" transform="translate(4553 0)"/>
    <use xlink:href="#DejaVuSans-6e" transform="translate(4580.783203 0)"/>
    <use xlink:href="#DejaVuSans-67" transform="translate(4644.162109 0)"/>
    <use xlink:href="#DejaVuSans-5f" transform="translate(4707.638672 0)"/>
    <use xlink:href="#DejaVuSans-63" transform="translate(4757.638672 0)"/>
    <use xlink:href="#DejaVuSans-6f" transform="translate(4812.619141 0)"/>
    <use xlink:href="#DejaVuSans-6e" transform="translate(4873.800781 0)"/>
    <use xlink:href="#DejaVuSans-74" transform="translate(4937.179688 0)"/>
    <use xlink:href="#DejaVuSans-65" transform="translate(4976.388672 0)"/>
    <use xlink:href="#DejaVuSans-6e" transform="translate(5037.912109 0)"/>
    <use xlink:href="#DejaVuSans-74" transform="translate(5101.291016 0)"/>
    <use xlink:href="#DejaVuSans-2e" transform="translate(5140.5 0)"/>
   </g>
  </g>
  <g id="text_21">
   <!-- Standalone input counts: 72 / 47 tokens. oMLX input counts: 112 / 87. Templates are not matched. -->
   <g transform="translate(36.864 426.006672) scale(0.095 -0.095)">
    <defs>
     <path id="DejaVuSans-3a" d="M 750 794 
L 1409 794 
L 1409 0 
L 750 0 
L 750 794 
z
M 750 3309 
L 1409 3309 
L 1409 2516 
L 750 2516 
L 750 3309 
z
" transform="scale(0.015625)"/>
     <path id="DejaVuSans-2f" d="M 1625 4666 
L 2156 4666 
L 531 -594 
L 0 -594 
L 1625 4666 
z
" transform="scale(0.015625)"/>
    </defs>
    <use xlink:href="#DejaVuSans-53"/>
    <use xlink:href="#DejaVuSans-74" transform="translate(63.476562 0)"/>
    <use xlink:href="#DejaVuSans-61" transform="translate(102.685547 0)"/>
    <use xlink:href="#DejaVuSans-6e" transform="translate(163.964844 0)"/>
    <use xlink:href="#DejaVuSans-64" transform="translate(227.34375 0)"/>
    <use xlink:href="#DejaVuSans-61" transform="translate(290.820312 0)"/>
    <use xlink:href="#DejaVuSans-6c" transform="translate(352.099609 0)"/>
    <use xlink:href="#DejaVuSans-6f" transform="translate(379.882812 0)"/>
    <use xlink:href="#DejaVuSans-6e" transform="translate(441.064453 0)"/>
    <use xlink:href="#DejaVuSans-65" transform="translate(504.443359 0)"/>
    <use xlink:href="#DejaVuSans-20" transform="translate(565.966797 0)"/>
    <use xlink:href="#DejaVuSans-69" transform="translate(597.753906 0)"/>
    <use xlink:href="#DejaVuSans-6e" transform="translate(625.537109 0)"/>
    <use xlink:href="#DejaVuSans-70" transform="translate(688.916016 0)"/>
    <use xlink:href="#DejaVuSans-75" transform="translate(752.392578 0)"/>
    <use xlink:href="#DejaVuSans-74" transform="translate(815.771484 0)"/>
    <use xlink:href="#DejaVuSans-20" transform="translate(854.980469 0)"/>
    <use xlink:href="#DejaVuSans-63" transform="translate(886.767578 0)"/>
    <use xlink:href="#DejaVuSans-6f" transform="translate(941.748047 0)"/>
    <use xlink:href="#DejaVuSans-75" transform="translate(1002.929688 0)"/>
    <use xlink:href="#DejaVuSans-6e" transform="translate(1066.308594 0)"/>
    <use xlink:href="#DejaVuSans-74" transform="translate(1129.6875 0)"/>
    <use xlink:href="#DejaVuSans-73" transform="translate(1168.896484 0)"/>
    <use xlink:href="#DejaVuSans-3a" transform="translate(1220.996094 0)"/>
    <use xlink:href="#DejaVuSans-20" transform="translate(1254.6875 0)"/>
    <use xlink:href="#DejaVuSans-37" transform="translate(1286.474609 0)"/>
    <use xlink:href="#DejaVuSans-32" transform="translate(1350.097656 0)"/>
    <use xlink:href="#DejaVuSans-20" transform="translate(1413.720703 0)"/>
    <use xlink:href="#DejaVuSans-2f" transform="translate(1445.507812 0)"/>
    <use xlink:href="#DejaVuSans-20" transform="translate(1479.199219 0)"/>
    <use xlink:href="#DejaVuSans-34" transform="translate(1510.986328 0)"/>
    <use xlink:href="#DejaVuSans-37" transform="translate(1574.609375 0)"/>
    <use xlink:href="#DejaVuSans-20" transform="translate(1638.232422 0)"/>
    <use xlink:href="#DejaVuSans-74" transform="translate(1670.019531 0)"/>
    <use xlink:href="#DejaVuSans-6f" transform="translate(1709.228516 0)"/>
    <use xlink:href="#DejaVuSans-6b" transform="translate(1770.410156 0)"/>
    <use xlink:href="#DejaVuSans-65" transform="translate(1824.695312 0)"/>
    <use xlink:href="#DejaVuSans-6e" transform="translate(1886.21875 0)"/>
    <use xlink:href="#DejaVuSans-73" transform="translate(1949.597656 0)"/>
    <use xlink:href="#DejaVuSans-2e" transform="translate(2001.697266 0)"/>
    <use xlink:href="#DejaVuSans-20" transform="translate(2033.484375 0)"/>
    <use xlink:href="#DejaVuSans-6f" transform="translate(2065.271484 0)"/>
    <use xlink:href="#DejaVuSans-4d" transform="translate(2126.453125 0)"/>
    <use xlink:href="#DejaVuSans-4c" transform="translate(2212.732422 0)"/>
    <use xlink:href="#DejaVuSans-58" transform="translate(2268.445312 0)"/>
    <use xlink:href="#DejaVuSans-20" transform="translate(2336.951172 0)"/>
    <use xlink:href="#DejaVuSans-69" transform="translate(2368.738281 0)"/>
    <use xlink:href="#DejaVuSans-6e" transform="translate(2396.521484 0)"/>
    <use xlink:href="#DejaVuSans-70" transform="translate(2459.900391 0)"/>
    <use xlink:href="#DejaVuSans-75" transform="translate(2523.376953 0)"/>
    <use xlink:href="#DejaVuSans-74" transform="translate(2586.755859 0)"/>
    <use xlink:href="#DejaVuSans-20" transform="translate(2625.964844 0)"/>
    <use xlink:href="#DejaVuSans-63" transform="translate(2657.751953 0)"/>
    <use xlink:href="#DejaVuSans-6f" transform="translate(2712.732422 0)"/>
    <use xlink:href="#DejaVuSans-75" transform="translate(2773.914062 0)"/>
    <use xlink:href="#DejaVuSans-6e" transform="translate(2837.292969 0)"/>
    <use xlink:href="#DejaVuSans-74" transform="translate(2900.671875 0)"/>
    <use xlink:href="#DejaVuSans-73" transform="translate(2939.880859 0)"/>
    <use xlink:href="#DejaVuSans-3a" transform="translate(2991.980469 0)"/>
    <use xlink:href="#DejaVuSans-20" transform="translate(3025.671875 0)"/>
    <use xlink:href="#DejaVuSans-31" transform="translate(3057.458984 0)"/>
    <use xlink:href="#DejaVuSans-31" transform="translate(3121.082031 0)"/>
    <use xlink:href="#DejaVuSans-32" transform="translate(3184.705078 0)"/>
    <use xlink:href="#DejaVuSans-20" transform="translate(3248.328125 0)"/>
    <use xlink:href="#DejaVuSans-2f" transform="translate(3280.115234 0)"/>
    <use xlink:href="#DejaVuSans-20" transform="translate(3313.806641 0)"/>
    <use xlink:href="#DejaVuSans-38" transform="translate(3345.59375 0)"/>
    <use xlink:href="#DejaVuSans-37" transform="translate(3409.216797 0)"/>
    <use xlink:href="#DejaVuSans-2e" transform="translate(3472.839844 0)"/>
    <use xlink:href="#DejaVuSans-20" transform="translate(3504.626953 0)"/>
    <use xlink:href="#DejaVuSans-54" transform="translate(3536.414062 0)"/>
    <use xlink:href="#DejaVuSans-65" transform="translate(3580.498047 0)"/>
    <use xlink:href="#DejaVuSans-6d" transform="translate(3642.021484 0)"/>
    <use xlink:href="#DejaVuSans-70" transform="translate(3739.433594 0)"/>
    <use xlink:href="#DejaVuSans-6c" transform="translate(3802.910156 0)"/>
    <use xlink:href="#DejaVuSans-61" transform="translate(3830.693359 0)"/>
    <use xlink:href="#DejaVuSans-74" transform="translate(3891.972656 0)"/>
    <use xlink:href="#DejaVuSans-65" transform="translate(3931.181641 0)"/>
    <use xlink:href="#DejaVuSans-73" transform="translate(3992.705078 0)"/>
    <use xlink:href="#DejaVuSans-20" transform="translate(4044.804688 0)"/>
    <use xlink:href="#DejaVuSans-61" transform="translate(4076.591797 0)"/>
    <use xlink:href="#DejaVuSans-72" transform="translate(4137.871094 0)"/>
    <use xlink:href="#DejaVuSans-65" transform="translate(4176.734375 0)"/>
    <use xlink:href="#DejaVuSans-20" transform="translate(4238.257812 0)"/>
    <use xlink:href="#DejaVuSans-6e" transform="translate(4270.044922 0)"/>
    <use xlink:href="#DejaVuSans-6f" transform="translate(4333.423828 0)"/>
    <use xlink:href="#DejaVuSans-74" transform="translate(4394.605469 0)"/>
    <use xlink:href="#DejaVuSans-20" transform="translate(4433.814453 0)"/>
    <use xlink:href="#DejaVuSans-6d" transform="translate(4465.601562 0)"/>
    <use xlink:href="#DejaVuSans-61" transform="translate(4563.013672 0)"/>
    <use xlink:href="#DejaVuSans-74" transform="translate(4624.292969 0)"/>
    <use xlink:href="#DejaVuSans-63" transform="translate(4663.501953 0)"/>
    <use xlink:href="#DejaVuSans-68" transform="translate(4718.482422 0)"/>
    <use xlink:href="#DejaVuSans-65" transform="translate(4781.861328 0)"/>
    <use xlink:href="#DejaVuSans-64" transform="translate(4843.384766 0)"/>
    <use xlink:href="#DejaVuSans-2e" transform="translate(4906.861328 0)"/>
   </g>
   <!-- Reasoning-token counts are not separately logged; these are whole-completion counts, not counts of reasoning alone. -->
   <g transform="translate(36.864 438.088297) scale(0.095 -0.095)">
    <defs>
     <path id="DejaVuSans-79" d="M 2059 -325 
Q 1816 -950 1584 -1140 
Q 1353 -1331 966 -1331 
L 506 -1331 
L 506 -850 
L 844 -850 
Q 1081 -850 1212 -737 
Q 1344 -625 1503 -206 
L 1606 56 
L 191 3500 
L 800 3500 
L 1894 763 
L 2988 3500 
L 3597 3500 
L 2059 -325 
z
" transform="scale(0.015625)"/>
     <path id="DejaVuSans-3b" d="M 750 3309 
L 1409 3309 
L 1409 2516 
L 750 2516 
L 750 3309 
z
M 750 794 
L 1409 794 
L 1409 256 
L 897 -744 
L 494 -744 
L 750 256 
L 750 794 
z
" transform="scale(0.015625)"/>
     <path id="DejaVuSans-77" d="M 269 3500 
L 844 3500 
L 1563 769 
L 2278 3500 
L 2956 3500 
L 3675 769 
L 4391 3500 
L 4966 3500 
L 4050 0 
L 3372 0 
L 2619 2869 
L 1863 0 
L 1184 0 
L 269 3500 
z
" transform="scale(0.015625)"/>
     <path id="DejaVuSans-66" d="M 2375 4863 
L 2375 4384 
L 1825 4384 
Q 1516 4384 1395 4259 
Q 1275 4134 1275 3809 
L 1275 3500 
L 2222 3500 
L 2222 3053 
L 1275 3053 
L 1275 0 
L 697 0 
L 697 3053 
L 147 3053 
L 147 3500 
L 697 3500 
L 697 3744 
Q 697 4328 969 4595 
Q 1241 4863 1831 4863 
L 2375 4863 
z
" transform="scale(0.015625)"/>
    </defs>
    <use xlink:href="#DejaVuSans-52"/>
    <use xlink:href="#DejaVuSans-65" transform="translate(64.982422 0)"/>
    <use xlink:href="#DejaVuSans-61" transform="translate(126.505859 0)"/>
    <use xlink:href="#DejaVuSans-73" transform="translate(187.785156 0)"/>
    <use xlink:href="#DejaVuSans-6f" transform="translate(239.884766 0)"/>
    <use xlink:href="#DejaVuSans-6e" transform="translate(301.066406 0)"/>
    <use xlink:href="#DejaVuSans-69" transform="translate(364.445312 0)"/>
    <use xlink:href="#DejaVuSans-6e" transform="translate(392.228516 0)"/>
    <use xlink:href="#DejaVuSans-67" transform="translate(455.607422 0)"/>
    <use xlink:href="#DejaVuSans-2d" transform="translate(519.083984 0)"/>
    <use xlink:href="#DejaVuSans-74" transform="translate(555.167969 0)"/>
    <use xlink:href="#DejaVuSans-6f" transform="translate(594.376953 0)"/>
    <use xlink:href="#DejaVuSans-6b" transform="translate(655.558594 0)"/>
    <use xlink:href="#DejaVuSans-65" transform="translate(709.84375 0)"/>
    <use xlink:href="#DejaVuSans-6e" transform="translate(771.367188 0)"/>
    <use xlink:href="#DejaVuSans-20" transform="translate(834.746094 0)"/>
    <use xlink:href="#DejaVuSans-63" transform="translate(866.533203 0)"/>
    <use xlink:href="#DejaVuSans-6f" transform="translate(921.513672 0)"/>
    <use xlink:href="#DejaVuSans-75" transform="translate(982.695312 0)"/>
    <use xlink:href="#DejaVuSans-6e" transform="translate(1046.074219 0)"/>
    <use xlink:href="#DejaVuSans-74" transform="translate(1109.453125 0)"/>
    <use xlink:href="#DejaVuSans-73" transform="translate(1148.662109 0)"/>
    <use xlink:href="#DejaVuSans-20" transform="translate(1200.761719 0)"/>
    <use xlink:href="#DejaVuSans-61" transform="translate(1232.548828 0)"/>
    <use xlink:href="#DejaVuSans-72" transform="translate(1293.828125 0)"/>
    <use xlink:href="#DejaVuSans-65" transform="translate(1332.691406 0)"/>
    <use xlink:href="#DejaVuSans-20" transform="translate(1394.214844 0)"/>
    <use xlink:href="#DejaVuSans-6e" transform="translate(1426.001953 0)"/>
    <use xlink:href="#DejaVuSans-6f" transform="translate(1489.380859 0)"/>
    <use xlink:href="#DejaVuSans-74" transform="translate(1550.5625 0)"/>
    <use xlink:href="#DejaVuSans-20" transform="translate(1589.771484 0)"/>
    <use xlink:href="#DejaVuSans-73" transform="translate(1621.558594 0)"/>
    <use xlink:href="#DejaVuSans-65" transform="translate(1673.658203 0)"/>
    <use xlink:href="#DejaVuSans-70" transform="translate(1735.181641 0)"/>
    <use xlink:href="#DejaVuSans-61" transform="translate(1798.658203 0)"/>
    <use xlink:href="#DejaVuSans-72" transform="translate(1859.9375 0)"/>
    <use xlink:href="#DejaVuSans-61" transform="translate(1901.050781 0)"/>
    <use xlink:href="#DejaVuSans-74" transform="translate(1962.330078 0)"/>
    <use xlink:href="#DejaVuSans-65" transform="translate(2001.539062 0)"/>
    <use xlink:href="#DejaVuSans-6c" transform="translate(2063.0625 0)"/>
    <use xlink:href="#DejaVuSans-79" transform="translate(2090.845703 0)"/>
    <use xlink:href="#DejaVuSans-20" transform="translate(2150.025391 0)"/>
    <use xlink:href="#DejaVuSans-6c" transform="translate(2181.8125 0)"/>
    <use xlink:href="#DejaVuSans-6f" transform="translate(2209.595703 0)"/>
    <use xlink:href="#DejaVuSans-67" transform="translate(2270.777344 0)"/>
    <use xlink:href="#DejaVuSans-67" transform="translate(2334.253906 0)"/>
    <use xlink:href="#DejaVuSans-65" transform="translate(2397.730469 0)"/>
    <use xlink:href="#DejaVuSans-64" transform="translate(2459.253906 0)"/>
    <use xlink:href="#DejaVuSans-3b" transform="translate(2522.730469 0)"/>
    <use xlink:href="#DejaVuSans-20" transform="translate(2556.421875 0)"/>
    <use xlink:href="#DejaVuSans-74" transform="translate(2588.208984 0)"/>
    <use xlink:href="#DejaVuSans-68" transform="translate(2627.417969 0)"/>
    <use xlink:href="#DejaVuSans-65" transform="translate(2690.796875 0)"/>
    <use xlink:href="#DejaVuSans-73" transform="translate(2752.320312 0)"/>
    <use xlink:href="#DejaVuSans-65" transform="translate(2804.419922 0)"/>
    <use xlink:href="#DejaVuSans-20" transform="translate(2865.943359 0)"/>
    <use xlink:href="#DejaVuSans-61" transform="translate(2897.730469 0)"/>
    <use xlink:href="#DejaVuSans-72" transform="translate(2959.009766 0)"/>
    <use xlink:href="#DejaVuSans-65" transform="translate(2997.873047 0)"/>
    <use xlink:href="#DejaVuSans-20" transform="translate(3059.396484 0)"/>
    <use xlink:href="#DejaVuSans-77" transform="translate(3091.183594 0)"/>
    <use xlink:href="#DejaVuSans-68" transform="translate(3172.970703 0)"/>
    <use xlink:href="#DejaVuSans-6f" transform="translate(3236.349609 0)"/>
    <use xlink:href="#DejaVuSans-6c" transform="translate(3297.53125 0)"/>
    <use xlink:href="#DejaVuSans-65" transform="translate(3325.314453 0)"/>
    <use xlink:href="#DejaVuSans-2d" transform="translate(3386.837891 0)"/>
    <use xlink:href="#DejaVuSans-63" transform="translate(3422.921875 0)"/>
    <use xlink:href="#DejaVuSans-6f" transform="translate(3477.902344 0)"/>
    <use xlink:href="#DejaVuSans-6d" transform="translate(3539.083984 0)"/>
    <use xlink:href="#DejaVuSans-70" transform="translate(3636.496094 0)"/>
    <use xlink:href="#DejaVuSans-6c" transform="translate(3699.972656 0)"/>
    <use xlink:href="#DejaVuSans-65" transform="translate(3727.755859 0)"/>
    <use xlink:href="#DejaVuSans-74" transform="translate(3789.279297 0)"/>
    <use xlink:href="#DejaVuSans-69" transform="translate(3828.488281 0)"/>
    <use xlink:href="#DejaVuSans-6f" transform="translate(3856.271484 0)"/>
    <use xlink:href="#DejaVuSans-6e" transform="translate(3917.453125 0)"/>
    <use xlink:href="#DejaVuSans-20" transform="translate(3980.832031 0)"/>
    <use xlink:href="#DejaVuSans-63" transform="translate(4012.619141 0)"/>
    <use xlink:href="#DejaVuSans-6f" transform="translate(4067.599609 0)"/>
    <use xlink:href="#DejaVuSans-75" transform="translate(4128.78125 0)"/>
    <use xlink:href="#DejaVuSans-6e" transform="translate(4192.160156 0)"/>
    <use xlink:href="#DejaVuSans-74" transform="translate(4255.539062 0)"/>
    <use xlink:href="#DejaVuSans-73" transform="translate(4294.748047 0)"/>
    <use xlink:href="#DejaVuSans-2c" transform="translate(4346.847656 0)"/>
    <use xlink:href="#DejaVuSans-20" transform="translate(4378.634766 0)"/>
    <use xlink:href="#DejaVuSans-6e" transform="translate(4410.421875 0)"/>
    <use xlink:href="#DejaVuSans-6f" transform="translate(4473.800781 0)"/>
    <use xlink:href="#DejaVuSans-74" transform="translate(4534.982422 0)"/>
    <use xlink:href="#DejaVuSans-20" transform="translate(4574.191406 0)"/>
    <use xlink:href="#DejaVuSans-63" transform="translate(4605.978516 0)"/>
    <use xlink:href="#DejaVuSans-6f" transform="translate(4660.958984 0)"/>
    <use xlink:href="#DejaVuSans-75" transform="translate(4722.140625 0)"/>
    <use xlink:href="#DejaVuSans-6e" transform="translate(4785.519531 0)"/>
    <use xlink:href="#DejaVuSans-74" transform="translate(4848.898438 0)"/>
    <use xlink:href="#DejaVuSans-73" transform="translate(4888.107422 0)"/>
    <use xlink:href="#DejaVuSans-20" transform="translate(4940.207031 0)"/>
    <use xlink:href="#DejaVuSans-6f" transform="translate(4971.994141 0)"/>
    <use xlink:href="#DejaVuSans-66" transform="translate(5033.175781 0)"/>
    <use xlink:href="#DejaVuSans-20" transform="translate(5068.380859 0)"/>
    <use xlink:href="#DejaVuSans-72" transform="translate(5100.167969 0)"/>
    <use xlink:href="#DejaVuSans-65" transform="translate(5139.03125 0)"/>
    <use xlink:href="#DejaVuSans-61" transform="translate(5200.554688 0)"/>
    <use xlink:href="#DejaVuSans-73" transform="translate(5261.833984 0)"/>
    <use xlink:href="#DejaVuSans-6f" transform="translate(5313.933594 0)"/>
    <use xlink:href="#DejaVuSans-6e" transform="translate(5375.115234 0)"/>
    <use xlink:href="#DejaVuSans-69" transform="translate(5438.494141 0)"/>
    <use xlink:href="#DejaVuSans-6e" transform="translate(5466.277344 0)"/>
    <use xlink:href="#DejaVuSans-67" transform="translate(5529.65625 0)"/>
    <use xlink:href="#DejaVuSans-20" transform="translate(5593.132812 0)"/>
    <use xlink:href="#DejaVuSans-61" transform="translate(5624.919922 0)"/>
    <use xlink:href="#DejaVuSans-6c" transform="translate(5686.199219 0)"/>
    <use xlink:href="#DejaVuSans-6f" transform="translate(5713.982422 0)"/>
    <use xlink:href="#DejaVuSans-6e" transform="translate(5775.164062 0)"/>
    <use xlink:href="#DejaVuSans-65" transform="translate(5838.542969 0)"/>
    <use xlink:href="#DejaVuSans-2e" transform="translate(5900.066406 0)"/>
   </g>
  </g>
 </g>
 <defs>
  <clipPath id="p42aa1d93db">
   <rect x="92.16" y="82.944" width="774.144" height="299.52"/>
  </clipPath>
 </defs>
</svg>
